<svg xmlns="http://www.w3.org/2000/svg" xmlns:xlink="http://www.w3.org/1999/xlink" width="245.89" height="283.674" viewBox="0 0 245.89011 283.67417" id="svg2"><defs id="defs4"><linearGradient id="linearGradient4167"><stop id="stop4171" offset="0" stop-color="#5c4536"/><stop offset=".167" id="stop4193" stop-color="#543f32"/><stop id="stop4175" offset=".538" stop-color="#4b3a30"/><stop id="stop4173" offset=".826" stop-color="#3e2e27"/><stop offset=".916" id="stop4189" stop-color="#3b2727"/><stop id="stop4169" offset="1" stop-color="#372e2e"/></linearGradient><radialGradient xlink:href="#linearGradient4167" id="radialGradient4195" cx="189.504" cy="814.346" fx="189.504" fy="814.346" r="122.945" gradientTransform="matrix(1 0 0 .97623 0 19.212)" gradientUnits="userSpaceOnUse"/></defs><g id="layer1"><path d="M164.575 233.063c3.79.674-2.912 7.71-.438 7.39 9.823-1.27 5.955 16.136-2.38 13.415-3.13 17.702-27.95 30.238-44.952 29.25-20.258-1.942-33.15-13.66-38.89-29.04-12.288 1.97-11.603-16.344-2.213-15.234 0 0 .05-6.138.05-8.75" id="face" fill="#683b29" fill-rule="evenodd" stroke="#000"/><path d="M233.073 927.583c-1.484-.248-2.925-1.206-5.068-4.386-4.265 3.196-10.292 3.316-15.494-.134-2.53 1.457-7.362 2.85-12.626-1.516-6.698 3.29-9.955 1.868-14.175-.66-5.97 3.15-7.783 1.54-12.044.074-1.54 1.344-7.8 2.76-10.187-.816-5.82 1.595-6.204 5.668-13.175-.364-2.248 2.296-5.766 6.598-9.91 6.195-4.933-.395-11.306-3.29-10.708-7.315-4.03-.148-10.726 2.12-15.19-10.604l-11.372-5.252c-1.76-1.192-3.922-7.9-4.546-10.796-1.49-5.502-5.25-3.085-9.8-7.694-1.4-1.74.788-11.17-3.352-14.35-7.136-4.292-9.153-9.67-8.724-21.443-6.44-4.09-2.436-9.594-2.344-12.152-4.617-6.72-4.22-11.75-2.43-18.39-4.97-9.242-3-12.6 2.175-17.49-4.73-14.225.884-8.785 5.63-21.163-4.313-24.186 2.722-27.74 22.863-42.056 6.283-6.134 4.534-21.683 19.765-18.97 9.41-3.403 13.556-15.072 21.417-19.078 6.974-3.358 32.905-6.903 38.705-1.102 21.49-24.268 33.582 5.774 48.058 6.893 18.77-2.928 24.825 14.796 29.335 16.626 18.93-3.722 15.432 12.738 20.85 19.254 14.994 9.74 20.362 29.62 19.408 35.702 14.353 6.32 19.25 15.812 6.32 26.314-.212 7.15 5.844 24.194-2.045 25.56 3.607 7.145 3.563 27.097-8.815 36.733-7.617 10.093-7.75 31.046-18.156 25.29-5.955 10.738-7.317 17.84-14.035 17.356 2.804 7.145-11.996 8.585-11.996 8.585-12.538 3.595 3.803 9.292-8.128 8.708-2.36 2.755-2.29 1.03-5.692.715-2.492 1.276-3.973 2.24-4.517 1.725z" id="fro" fill="url(#radialGradient4195)" fill-rule="evenodd" stroke="#000" transform="translate(-68.558 -688.178)"/><path d="M12.254 69.472l107.96 53.8-24.875 108.582" id="path4145" fill="none" fill-rule="evenodd" stroke="#000"/><path d="M120.593 124.02L94.33 7.348" id="path4147" fill="none" fill-rule="evenodd" stroke="#000"/><path d="M120.603 122.898l72.47-89.79" id="path4149" fill="none" fill-rule="evenodd" stroke="#000"/><path d="M120.588 123.27l116.425-7.583-.505-.505" id="path4151" fill="none" fill-rule="evenodd" stroke="#000"/><path d="M120.593 123.515l110.864 47.477" id="path4153" fill="none" fill-rule="evenodd" stroke="#000"/><text style="line-height:125%" x="100.258" y="840.735" id="htmlText" font-size="12.5" font-family="sans-serif" letter-spacing="0" word-spacing="0" fill="#7e6e63" transform="translate(-68.558 -688.178)"><tspan id="tspan4161" x="100.258" y="840.735">HTML5</tspan></text><text style="line-height:125%" x="195.212" y="864.726" id="cssText" font-size="13.75" font-family="sans-serif" letter-spacing="0" word-spacing="0" fill="#7e6e63" transform="translate(-68.558 -688.178)"><tspan id="tspan4165" x="195.212" y="864.726">CSS3</tspan></text><text style="line-height:125%" x="569.89" y="493.206" id="jsText" transform="rotate(41.082 884.033 -435.574)" font-size="12.5" font-family="sans-serif" letter-spacing="0" word-spacing="0" fill="#7e6e63"><tspan id="tspan4169" x="569.89" y="493.206">Javascript</tspan></text><text style="line-height:125%" x="-704.483" y="382.071" id="aiText" transform="rotate(-75.9 -475.486 -300.135)" font-size="12.5" font-family="sans-serif" letter-spacing="0" word-spacing="0" fill="#7e6e63"><tspan id="tspan4181" x="-704.483" y="382.071">Illustrator</tspan></text><text style="line-height:125%" x="-138.643" y="817.158" id="psText" transform="rotate(-25 -1586.364 -189.465)" font-size="12.5" font-family="sans-serif" letter-spacing="0" word-spacing="0" fill="#7e6e63"><tspan id="tspan4185" x="-138.643" y="817.158">Photoshop</tspan></text><text style="line-height:125%" x="367.46" y="770.147" id="wpText" transform="rotate(10 3898.676 -735.902)" font-size="12.5" font-family="sans-serif" letter-spacing="0" word-spacing="0" fill="#7e6e63"><tspan id="tspan4189" x="367.46" y="770.147">Wordpress</tspan></text><path d="M93.81 245.832c7.3 3.606 10.288 3.174 16.353.09" id="rightEye" fill="none" fill-rule="evenodd" stroke="#000" stroke-linecap="round" stroke-linejoin="round"/><path d="M131.2 246.45c5.555 3.405 10.943 2.642 16.263.178" id="leftEye" fill="none" fill-rule="evenodd" stroke="#000" stroke-linecap="round" stroke-linejoin="round"/><path d="M107.777 256.792c-2.797 1.325.596 5.113 1.944 3.006m1.592-.442c.892 2.353 8.038 5.02 10.077-.266m1.5 1.06c2.096 1.068 4.246-.624 2.74-2.916" id="nose" fill="none" fill-rule="evenodd" stroke="#000" stroke-width=".5" stroke-linecap="round"/><path d="M100.087 268.99c9.876 4.637 20.06 5.058 33.5.088" id="mouth" fill="none" fill-rule="evenodd" stroke="#000" stroke-linecap="round"/><path d="M120.067 122.81L48.442 29.933" id="path4203" fill="none" fill-rule="evenodd" stroke="#000"/><text style="line-height:125%" x="706.196" y="176.861" id="ajsText" transform="rotate(65 505.832 -397.897)" font-size="12.5" font-family="sans-serif" letter-spacing="0" word-spacing="0" fill="#7e6e63"><tspan id="tspan4207" x="706.196" y="176.861">AngularJS</tspan></text></g></svg>